# xmcd
# 
# Track frame offsets:
#   150
#   12685
#   28732
#   45512
#   62760
#   83675
#   94702
#   107682
#   124467
#   141802
#   157275
#   171982
#   189800
#   208972
#   224685
# 
# Disc length: 3148 seconds
# 
# Revision: 2
# Processed by: cddbd v1.5.2PL0 Copyright (c) Steve Scherf et al.
# Submitted via: Synapstar 1.0 
# 
DISCID=e00c4a0f
DTITLE=Various Artist - The Brick 3 SC 7570
DYEAR=1900
DGENRE=Country
TTITLE0=The Kendalls - You'd Make an Angel Wanna Cheat
TTITLE1=The Judds - Had a Dream (For the Heart)
TTITLE2=Ronnie Milsap - Only One Love in My Life
TTITLE3=Louise Mandrell - I Wanna Say Yes
TTITLE4=Deborah Allen - Baby I Lied
TTITLE5=Freddie Hart - My Hang-Up Is You
TTITLE6=Sawyer Brown - This Missin' You Heart of Mine
TTITLE7=Forester Sisters - When You're in Love
TTITLE8=Vern Gosdin - Do You Believe Me Now
TTITLE9=Johnny Paycheck - Friend, Lover, Wife
TTITLE10=Keith Whitley - Homecoming '63
TTITLE11=Emmylou Harris - Born to Run
TTITLE12=Vince Gill - Oklahoma Borderline
TTITLE13=Ed Bruce - Ever, Never Lovin' You
TTITLE14=Barbara Mandrell - Tonight My Baby's Coming Home
EXTD=MediaType: Karaoke CD+G Producer: Sound Choice
EXTT0=
EXTT1=
EXTT2=
EXTT3=
EXTT4=
EXTT5=
EXTT6=
EXTT7=
EXTT8=
EXTT9=
EXTT10=
EXTT11=
EXTT12=
EXTT13=
EXTT14=
PLAYORDER=
